#!OML:ASF H:\Not Pregnant\Project 1\Capture day 1\Session 1\non-pregnant.ASF
:FULLY-SPECIFIED
:DEGREES
392
root -5.78779 16.1598 34.9652 154.493 -83.897 -141.05
lowerback -9.04751 2.131 3.17042
upperback -7.76817 2.2899 0.0682514
thorax -2.88585 0.863117 -1.54903
lowerneck 15.4255 -7.32644 -31.2822
upperneck -5.65362 -16.9244 43.7622
head 3.37732 -11.1174 23.7609
rclavicle 3.69491e-014 1.39149e-014
rhumerus -39.3151 -0.626602 -87.122
rradius 34.1834
rwrist -2.62511
rhand -12.3884 -9.9936
rfingers 7.12502
rthumb 13.6827 -39.5238
lclavicle 3.69491e-014 1.39149e-014
lhumerus -45.3433 -9.25638 94.9931
lradius 36.4184
lwrist 40.0605
lhand -0.690749 -7.47216
lfingers 7.12502
lthumb 24.9286 20.922
rfemur -19.5532 -13.9986 26.1246
rtibia 21.0001
rfoot -18.4937 23.4549
rtoes -4.72564
lfemur -20.7878 4.04613 -16.9013
ltibia 23.5709
lfoot -16.9611 -3.46949
ltoes -17.087
393
root -5.79014 16.159 34.9581 154.049 -83.9517 -140.642
lowerback -9.04357 2.12347 3.18155
upperback -7.75042 2.28061 0.0741411
thorax -2.86959 0.859227 -1.54964
lowerneck 15.4039 -7.32869 -31.2857
upperneck -5.59515 -16.9256 43.717
head 3.38952 -11.1087 23.7212
rclavicle 2.95692e-015 -4.17448e-015
rhumerus -39.5934 -0.0824938 -87.4575
rradius 34.3222
rwrist -2.91693
rhand -12.2856 -9.93265
rfingers 7.12502
rthumb 13.7818 -39.4562
lclavicle 2.95692e-015 -4.17448e-015
lhumerus -45.1917 -9.75256 95.2296
lradius 36.4807
lwrist 39.5679
lhand 0.87471 -7.19702
lfingers 7.12502
lthumb 26.4279 20.9807
rfemur -19.4813 -14.1088 26.1519
rtibia 20.9792
rfoot -18.5048 23.5178
rtoes -4.60955
lfemur -20.7612 4.07372 -16.8727
ltibia 23.6025
lfoot -16.992 -3.56013
ltoes -17.0855
394
root -5.79225 16.1582 34.9516 153.568 -84.0068 -140.193
lowerback -9.03996 2.11278 3.19642
upperback -7.73322 2.26684 0.0844936
thorax -2.85403 0.852984 -1.54803
lowerneck 15.3791 -7.32965 -31.2876
upperneck -5.53933 -16.9214 43.6682
head 3.39826 -11.0963 23.6788
rclavicle -1.49585e-014 -2.08724e-014
rhumerus -39.8747 0.502961 -87.8029
rradius 34.4449
rwrist -3.22624
rhand -12.231 -9.88455
rfingers 7.12502
rthumb 13.8344 -39.4045
lclavicle -1.49585e-014 -2.08724e-014
lhumerus -45.0684 -10.2901 95.4924
lradius 36.5692
lwrist 39.2254
lhand 2.2363 -6.93543
lfingers 7.12502
lthumb 27.7306 21.0396
rfemur -19.4188 -14.2096 26.1797
rtibia 20.9631
rfoot -18.5162 23.5672
rtoes -4.51103
lfemur -20.7393 4.08395 -16.842
ltibia 23.6288
lfoot -17.0146 -3.64024
ltoes -17.0823
395
root -5.79412 16.1575 34.9469 153.055 -84.0765 -139.704
lowerback -9.0388 2.09808 3.22804
upperback -7.71995 2.24632 0.089096
thorax -2.84085 0.842281 -1.56217
lowerneck 15.3586 -7.32773 -31.283
upperneck -5.48756 -16.9107 43.6175
head 3.40063 -11.0807 23.6352
rclavicle 9.74045e-015 1.31198e-014
rhumerus -40.156 1.07734 -88.1374
rradius 34.5376
rwrist -3.50865
rhand -12.1565 -9.8259
rfingers 7.12502
rthumb 13.9062 -39.3409
lclavicle 9.74045e-015 1.31198e-014
lhumerus -44.9723 -10.8418 95.7557
lradius 36.6905
lwrist 39.1052
lhand 3.43511 -6.61336
lfingers 7.12502
lthumb 28.8763 21.1716
rfemur -19.3756 -14.3472 26.2017
rtibia 20.9505
rfoot -18.525 23.6385
rtoes -4.41708
lfemur -20.7274 4.03688 -16.8192
ltibia 23.648
lfoot -17.0215 -3.6819
ltoes -17.0762
396
root -5.79566 16.157 34.943 152.511 -84.1541 -139.174
lowerback -9.04402 2.08088 3.26498
upperback -7.71062 2.22157 0.0927695
thorax -2.82837 0.828997 -1.5804
lowerneck 15.346 -7.32109 -31.2892
upperneck -5.44035 -16.8977 43.573
head 3.40168 -11.0656 23.6026
rclavicle -1.21756e-015 -1.39149e-015
rhumerus -40.424 1.57562 -88.432
rradius 34.5811
rwrist -3.70768
rhand -12.0678 -9.74345
rfingers 7.12502
rthumb 13.9916 -39.2526
lclavicle -1.21756e-015 -1.39149e-015
lhumerus -44.8976 -11.3898 96.0174
lradius 36.8159
lwrist 39.1439
lhand 4.4494 -6.29021
lfingers 7.12502
lthumb 29.8447 21.3251
rfemur -19.3487 -14.4707 26.2203
rtibia 20.9381
rfoot -18.5303 23.6824
rtoes -4.35556
lfemur -20.7284 3.95093 -16.7983
ltibia 23.6605
lfoot -17.0147 -3.69306
ltoes -17.0781
397
root -5.79703 16.1567 34.9389 151.991 -84.2343 -138.659
lowerback -9.05489 2.06042 3.29332
upperback -7.70438 2.19255 0.0992503
thorax -2.81668 0.813819 -1.5911
lowerneck 15.3385 -7.30844 -31.3107
upperneck -5.39393 -16.8815 43.534
head 3.40306 -11.0503 23.5821
rclavicle -2.21645e-014 -1.35174e-014
rhumerus -40.6764 1.9971 -88.6828
rradius 34.5697
rwrist -3.80988
rhand -11.9537 -9.62956
rfingers 7.12502
rthumb 14.1016 -39.1311
lclavicle -2.21645e-014 -1.35174e-014
lhumerus -44.8499 -11.9294 96.2886
lradius 36.938
lwrist 39.3099
lhand 5.23767 -5.9909
lfingers 7.12502
lthumb 30.5966 21.4867
rfemur -19.3281 -14.5518 26.2319
rtibia 20.9223
rfoot -18.5388 23.6714
rtoes -4.35658
lfemur -20.7385 3.85469 -16.7811
ltibia 23.6703
lfoot -17.0021 -3.69828
ltoes -17.0659
398
root -5.7983 16.1565 34.9347 151.479 -84.3155 -138.147
lowerback -9.07323 2.03829 3.31488
upperback -7.69965 2.16121 0.107063
thorax -2.80288 0.797727 -1.59661
lowerneck 15.3385 -7.29071 -31.3482
upperneck -5.34897 -16.8649 43.5029
head 3.40594 -11.0368 23.5755
rclavicle 3.33958e-014 2.34566e-014
rhumerus -40.8978 2.28189 -88.8654
rradius 34.484
rwrist -3.76519
rhand -11.8064 -9.47302
rfingers 7.12502
rthumb 14.2435 -38.9646
lclavicle 3.33958e-014 2.34566e-014
lhumerus -44.8216 -12.4475 96.5579
lradius 37.0414
lwrist 39.5904
lhand 5.80371 -5.7476
lfingers 7.12502
lthumb 31.1363 21.6278
rfemur -19.3121 -14.5969 26.2393
rtibia 20.904
rfoot -18.5509 23.6154
rtoes -4.41279
lfemur -20.756 3.75707 -16.7662
ltibia 23.678
lfoot -16.9859 -3.70079
ltoes -17.0638
399
root -5.80034 16.1559 34.927 150.895 -84.3679 -137.583
lowerback -9.08746 2.01561 3.3035
upperback -7.68666 2.13194 0.133538
thorax -2.78418 0.784949 -1.56427
lowerneck 15.3432 -7.271 -31.3955
upperneck -5.3021 -16.8506 43.4751
head 3.4113 -11.0254 23.5752
rclavicle 1.4238e-014 3.77691e-015
rhumerus -41.094 2.45985 -88.9918
rradius 34.3353
rwrist -3.59573
rhand -11.6378 -9.29875
rfingers 7.12502
rthumb 14.406 -38.7788
lclavicle 1.4238e-014 3.77691e-015
lhumerus -44.8085 -12.9318 96.8155
lradius 37.1312
lwrist 40.0023
lhand 6.18971 -5.51018
lfingers 7.12502
lthumb 31.5041 21.794
rfemur -19.2566 -14.5382 26.2613
rtibia 20.8848
rfoot -18.5812 23.4576
rtoes -4.5483
lfemur -20.7436 3.73501 -16.7226
ltibia 23.6853
lfoot -16.9882 -3.7549
ltoes -17.057
400
root -5.80267 16.1553 34.9191 150.413 -84.4132 -137.124
lowerback -9.10497 1.99173 3.2825
upperback -7.67101 2.10157 0.15992
thorax -2.76118 0.772155 -1.52663
lowerneck 15.3392 -7.25302 -31.4366
upperneck -5.24741 -16.8358 43.4408
head 3.41829 -11.0122 23.5665
rclavicle 2.25621e-014 5.1684e-015
rhumerus -41.2593 2.54671 -89.0724
rradius 34.1243
rwrist -3.31614
rhand -11.4413 -9.10697
rfingers 7.12502
rthumb 14.5953 -38.5734
lclavicle 2.25621e-014 5.1684e-015
lhumerus -44.8066 -13.3746 97.0543
lradius 37.1944
lwrist 40.4868
lhand 6.37685 -5.34182
lfingers 7.12502
lthumb 31.6823 21.9273
rfemur -19.1972 -14.4747 26.2773
rtibia 20.8697
rfoot -18.6135 23.3066
rtoes -4.66951
lfemur -20.7233 3.75139 -16.6881
ltibia 23.6899
lfoot -16.9994 -3.83311
ltoes -17.0533
401
root -5.80539 16.1546 34.9116 149.995 -84.4563 -136.729
lowerback -9.12735 1.96581 3.26042
upperback -7.65484 2.06826 0.184125
thorax -2.73503 0.757896 -1.49072
lowerneck 15.3249 -7.23728 -31.4685
upperneck -5.18173 -16.8212 43.399
head 3.42773 -10.9971 23.5472
rclavicle -4.47266e-016 -6.55989e-015
rhumerus -41.4 2.5848 -89.1205
rradius 33.861
rwrist -2.97366
rhand -11.2388 -8.92477
rfingers 7.12502
rthumb 14.7904 -38.377
lclavicle -4.47266e-016 -6.55989e-015
lhumerus -44.815 -13.7738 97.2719
lradius 37.2121
lwrist 40.9523
lhand 6.38525 -5.31284
lfingers 7.12502
lthumb 31.6903 21.9547
rfemur -19.1432 -14.4284 26.2894
rtibia 20.8643
rfoot -18.6483 23.1822
rtoes -4.76446
lfemur -20.6981 3.78533 -16.6624
ltibia 23.6889
lfoot -17.0148 -3.92074
ltoes -17.0655
